<mxfile host="app.diagrams.net" modified="2024-01-26T11:08:25.525Z" agent="Mozilla/5.0 (Macintosh; Intel Mac OS X 10_15_7) AppleWebKit/605.1.15 (KHTML, like Gecko) Version/17.2.1 Safari/605.1.15" etag="P4LlpTrYSoBp7ykeFwFw" version="23.0.2" type="device">
  <diagram id="prtHgNgQTEPvFCAcTncT" name="Page-1">
    <mxGraphModel dx="952" dy="754" grid="1" gridSize="10" guides="1" tooltips="1" connect="1" arrows="1" fold="1" page="1" pageScale="1" pageWidth="827" pageHeight="1169" math="0" shadow="0">
      <root>
        <mxCell id="0" />
        <mxCell id="1" parent="0" />
        <mxCell id="lGZBHXE40sVpVeSNJsiR-1" value="Użytkownik" style="whiteSpace=wrap;html=1;aspect=fixed;" vertex="1" parent="1">
          <mxGeometry x="120" y="320" width="80" height="80" as="geometry" />
        </mxCell>
        <mxCell id="lGZBHXE40sVpVeSNJsiR-8" style="edgeStyle=orthogonalEdgeStyle;rounded=0;orthogonalLoop=1;jettySize=auto;html=1;entryX=1;entryY=0.25;entryDx=0;entryDy=0;" edge="1" parent="1" source="lGZBHXE40sVpVeSNJsiR-2" target="lGZBHXE40sVpVeSNJsiR-1">
          <mxGeometry relative="1" as="geometry">
            <Array as="points">
              <mxPoint x="350" y="340" />
              <mxPoint x="350" y="340" />
            </Array>
          </mxGeometry>
        </mxCell>
        <mxCell id="lGZBHXE40sVpVeSNJsiR-9" value="Informacje o projekcie" style="edgeLabel;html=1;align=center;verticalAlign=middle;resizable=0;points=[];" vertex="1" connectable="0" parent="lGZBHXE40sVpVeSNJsiR-8">
          <mxGeometry x="0.0261" relative="1" as="geometry">
            <mxPoint y="-10" as="offset" />
          </mxGeometry>
        </mxCell>
        <mxCell id="lGZBHXE40sVpVeSNJsiR-10" style="edgeStyle=orthogonalEdgeStyle;rounded=0;orthogonalLoop=1;jettySize=auto;html=1;entryX=1;entryY=0;entryDx=0;entryDy=0;" edge="1" parent="1" source="lGZBHXE40sVpVeSNJsiR-2" target="lGZBHXE40sVpVeSNJsiR-1">
          <mxGeometry relative="1" as="geometry">
            <Array as="points">
              <mxPoint x="250" y="320" />
              <mxPoint x="250" y="320" />
            </Array>
          </mxGeometry>
        </mxCell>
        <mxCell id="lGZBHXE40sVpVeSNJsiR-11" value="Informacje o profilu" style="edgeLabel;html=1;align=center;verticalAlign=middle;resizable=0;points=[];" vertex="1" connectable="0" parent="lGZBHXE40sVpVeSNJsiR-10">
          <mxGeometry x="0.2417" y="-1" relative="1" as="geometry">
            <mxPoint y="-9" as="offset" />
          </mxGeometry>
        </mxCell>
        <mxCell id="lGZBHXE40sVpVeSNJsiR-14" style="edgeStyle=orthogonalEdgeStyle;rounded=0;orthogonalLoop=1;jettySize=auto;html=1;entryX=1;entryY=1;entryDx=0;entryDy=0;" edge="1" parent="1" source="lGZBHXE40sVpVeSNJsiR-2" target="lGZBHXE40sVpVeSNJsiR-1">
          <mxGeometry relative="1" as="geometry">
            <Array as="points">
              <mxPoint x="250" y="400" />
              <mxPoint x="250" y="400" />
            </Array>
          </mxGeometry>
        </mxCell>
        <mxCell id="lGZBHXE40sVpVeSNJsiR-15" value="Pliki wynikowe" style="edgeLabel;html=1;align=center;verticalAlign=middle;resizable=0;points=[];" vertex="1" connectable="0" parent="lGZBHXE40sVpVeSNJsiR-14">
          <mxGeometry x="0.1417" y="1" relative="1" as="geometry">
            <mxPoint x="-13" y="-11" as="offset" />
          </mxGeometry>
        </mxCell>
        <mxCell id="lGZBHXE40sVpVeSNJsiR-2" value="0. DockerNote" style="ellipse;whiteSpace=wrap;html=1;aspect=fixed;" vertex="1" parent="1">
          <mxGeometry x="400" y="320" width="80" height="80" as="geometry" />
        </mxCell>
        <mxCell id="lGZBHXE40sVpVeSNJsiR-4" style="edgeStyle=orthogonalEdgeStyle;rounded=0;orthogonalLoop=1;jettySize=auto;html=1;" edge="1" parent="1" source="lGZBHXE40sVpVeSNJsiR-3" target="lGZBHXE40sVpVeSNJsiR-2">
          <mxGeometry relative="1" as="geometry" />
        </mxCell>
        <mxCell id="lGZBHXE40sVpVeSNJsiR-5" value="Cytat dnia" style="edgeLabel;html=1;align=center;verticalAlign=middle;resizable=0;points=[];" vertex="1" connectable="0" parent="lGZBHXE40sVpVeSNJsiR-4">
          <mxGeometry x="0.1167" relative="1" as="geometry">
            <mxPoint y="10" as="offset" />
          </mxGeometry>
        </mxCell>
        <mxCell id="lGZBHXE40sVpVeSNJsiR-3" value="Zenquotes" style="whiteSpace=wrap;html=1;aspect=fixed;" vertex="1" parent="1">
          <mxGeometry x="600" y="320" width="80" height="80" as="geometry" />
        </mxCell>
        <mxCell id="lGZBHXE40sVpVeSNJsiR-6" value="Logowanie użytkownika" style="endArrow=classic;startArrow=classic;html=1;rounded=0;" edge="1" parent="1" source="lGZBHXE40sVpVeSNJsiR-1" target="lGZBHXE40sVpVeSNJsiR-2">
          <mxGeometry y="10" width="50" height="50" relative="1" as="geometry">
            <mxPoint x="470" y="400" as="sourcePoint" />
            <mxPoint x="520" y="350" as="targetPoint" />
            <mxPoint as="offset" />
          </mxGeometry>
        </mxCell>
        <mxCell id="lGZBHXE40sVpVeSNJsiR-12" style="edgeStyle=orthogonalEdgeStyle;rounded=0;orthogonalLoop=1;jettySize=auto;html=1;exitX=1;exitY=0.75;exitDx=0;exitDy=0;entryX=0.038;entryY=0.75;entryDx=0;entryDy=0;entryPerimeter=0;" edge="1" parent="1" source="lGZBHXE40sVpVeSNJsiR-1" target="lGZBHXE40sVpVeSNJsiR-2">
          <mxGeometry relative="1" as="geometry" />
        </mxCell>
        <mxCell id="lGZBHXE40sVpVeSNJsiR-13" value="Rejestracja użytkownika" style="edgeLabel;html=1;align=center;verticalAlign=middle;resizable=0;points=[];" vertex="1" connectable="0" parent="lGZBHXE40sVpVeSNJsiR-12">
          <mxGeometry x="-0.0347" y="3" relative="1" as="geometry">
            <mxPoint y="-7" as="offset" />
          </mxGeometry>
        </mxCell>
        <mxCell id="lGZBHXE40sVpVeSNJsiR-17" value="" style="endArrow=classic;startArrow=classic;html=1;rounded=0;exitX=0.5;exitY=0;exitDx=0;exitDy=0;entryX=0.5;entryY=0;entryDx=0;entryDy=0;" edge="1" parent="1" source="lGZBHXE40sVpVeSNJsiR-1" target="lGZBHXE40sVpVeSNJsiR-2">
          <mxGeometry width="50" height="50" relative="1" as="geometry">
            <mxPoint x="470" y="400" as="sourcePoint" />
            <mxPoint x="410" y="290" as="targetPoint" />
            <Array as="points">
              <mxPoint x="200" y="300" />
              <mxPoint x="410" y="300" />
            </Array>
          </mxGeometry>
        </mxCell>
        <mxCell id="lGZBHXE40sVpVeSNJsiR-18" value="Pliki źródłowe" style="edgeLabel;html=1;align=center;verticalAlign=middle;resizable=0;points=[];" vertex="1" connectable="0" parent="lGZBHXE40sVpVeSNJsiR-17">
          <mxGeometry x="-0.094" y="1" relative="1" as="geometry">
            <mxPoint y="-9" as="offset" />
          </mxGeometry>
        </mxCell>
        <mxCell id="lGZBHXE40sVpVeSNJsiR-19" value="DFD Kontekstowy" style="text;html=1;strokeColor=none;fillColor=none;align=center;verticalAlign=middle;whiteSpace=wrap;rounded=0;" vertex="1" parent="1">
          <mxGeometry x="339" y="250" width="150" height="30" as="geometry" />
        </mxCell>
      </root>
    </mxGraphModel>
  </diagram>
</mxfile>
